PathFileType	4	(X/Y/Z)	C:/Users/beibeiliu/ov580/test_trc/User2\sequence.40_training_dense_right.trc
DataRate	CameraRate	NumFrames	NumMarkers	Units	OrigDataRate	OrigDataStartFrame	OrigNumFrames
120	120	22	19	mm	120	1	198
Frame#	Time	ThumbCMC			ThumbMCP			ThumbIP			ThumbTip			IndexMCP			IndexPIP			IndexTip			MiddleMCP			MiddlePIP			MiddleTip			RingMCP			RingPIP			RingTip			PinkyMCP			PinkyPIP			PinkyTip			BackHand1			BackHand2			BackHand3	
		X0	Y0	Z0	X1	Y1	Z1	X2	Y2	Z2	X3	Y3	Z3	X4	Y4	Z4	X5	Y5	Z5	X6	Y6	Z6	X7	Y7	Z7	X8	Y8	Z8	X9	Y9	Z9	X10	Y10	Z10	X11	Y11	Z11	X12	Y12	Z12	X13	Y13	Z13	X14	Y14	Z14	X15	Y15	Z15	X16	Y16	Z16	X17	Y17	Z17	X18	Y18	Z18	
0	0	45.6231	23.2293	31.3917	14.8373	12.9686	18.3656	-9.08016	2.12465	-4.62419	-23.8971	-7.96591	-21.058	37.3014	33.4002	-53.3728	24.8114	25.161	-80.0527	12.9883	21.1327	-100.197	70.5544	35.2806	-67.57	63.5077	27.0354	-96.5878	63.9946	19.073	-127.908	95.7836	27.0005	-66.6367	97.215	20.2671	-92.2992	100.26	16.2283	-120.529	121.625	14.8501	-52.6343	131.552	4.27122	-73.2302	142.148	-0.187415	-91.4972	100.661	42.9531	-9.76265	106.265	50.2117	24.184	69.3617	48.4317	14.0268	
1	0.00833333	42.97	24.1915	27.4713	19.8621	13.4005	18.2488	-7.14088	3.27351	-6.32007	-25.2663	-7.59668	-17.5491	38.3121	33.5689	-52.7821	23.4119	27.3651	-78.4701	15.8751	20.7924	-104.67	67.7356	35.5027	-65.5754	62.6089	26.5539	-99.929	63.1873	19.5566	-129.357	93.872	27.1995	-68.4245	101.744	20.0006	-88.9405	98.72	16.0379	-119.882	121.05	14.5552	-51.6157	132.003	3.91236	-74.2244	138.72	-1.08988	-96.4006	101.332	42.2927	-9.24575	107.451	49.0644	24.0168	69.1181	49.8324	11.2746	
2	0.0166667	43.9774	24.8697	32.9074	20.1153	13.7837	15.754	-7.42587	3.75511	-5.14837	-21.8113	-6.38553	-20.4854	39.4687	34.4865	-53.2051	24.8839	28.5818	-74.6774	18.2349	22.182	-101.862	67.7875	35.2477	-70.3758	62.9402	27.3854	-99.3038	63.6537	19.2356	-130.57	97.5604	27.4209	-66.901	98.1771	20.54	-88.8672	99.6212	14.9735	-118.597	122.214	15.6372	-53.1416	131.414	3.63433	-71.716	138.316	0.0522851	-92.5112	103.041	42.6882	-10.3487	110.928	49.9626	20.8442	72.4657	50.7777	12.3782	
3	0.025	42.5397	25.5769	30.2852	18.6673	14.645	19.0486	-6.83077	4.44057	-6.79681	-23.769	-6.66471	-20.8699	38.5184	35.2736	-50.7566	24.0933	28.076	-78.617	19.1282	22.5864	-103.682	72.5042	36.0563	-68.8632	67.0769	27.3445	-100.713	66.5415	19.3126	-128.783	96.2556	28.5915	-68.6093	99.7079	21.1213	-92.8058	98.3501	15.4016	-119.098	122.188	16.0677	-51.8162	129.795	4.68449	-70.1368	140.857	0.0448587	-95.5925	100.769	44.9102	-9.87181	110.391	48.3181	24.0584	68.5624	50.1677	9.76149	
4	0.0333333	41.108	26.6038	29.6346	19.4229	14.9505	18.0286	-7.03514	4.97348	-4.67723	-23.2662	-6.40927	-21.4608	38.6067	35.7897	-54.449	24.7966	30.0774	-75.3256	19.5554	22.9415	-102.587	68.3119	37.5371	-64.4406	64.7521	27.5142	-99.7396	63.348	21.2157	-126.438	95.8107	28.7718	-63.0444	96.7323	21.4829	-92.8345	98.6561	17.4629	-120.116	122.966	16.0255	-48.4363	131.4	5.46381	-74.3539	140.463	-0.394514	-95.6884	101.875	44.2479	-6.36621	113.058	50.3178	23.7523	74.4708	50.2743	12.8978	
5	0.0416667	41.2634	26.0651	28.5774	20.9797	14.4677	16.8081	-3.82969	3.74556	-1.45571	-21.3626	-6.62616	-18.226	36.3123	35.3146	-51.6692	27.8499	29.62	-78.8876	12.773	23.4451	-103.061	70.5555	37.7373	-64.8143	67.6344	29.571	-96.6377	63.0535	22.0324	-124.593	94.6566	29.104	-66.2896	100.11	22.5984	-89.3116	96.8452	17.2857	-115.794	124.813	15.9469	-51.2011	129.075	7.07851	-70.973	142.927	1.6758	-95.7925	105.197	43.6025	-9.54363	109.413	49.6459	21.772	72.9708	50.4912	9.30994	
6	0.05	43.5547	25.3155	29.0539	17.6838	15.2472	19.4423	-9.30197	4.4413	-2.3599	-24.9134	-7.32426	-16.2259	37.3543	35.1866	-52.3251	22.9367	29.2432	-77.0907	18.4538	23.7895	-103.486	67.4256	38.2553	-65.4729	65.0849	29.4224	-96.1267	63.372	21.5555	-126.429	98.7001	29.5073	-66.1334	101.086	22.5308	-89.3776	100.419	17.5693	-115.697	121.707	17.184	-48.9593	133.436	5.18967	-71.707	143.029	0.900496	-95.7195	101.878	45.4394	-6.06918	107.253	49.8839	24.6493	70.5668	50.1188	10.6874	
7	0.0583333	43.7436	25.0853	33.6246	18.2857	14.8915	19.1654	-7.52654	4.08909	-1.38854	-25.1333	-6.54688	-17.7581	35.6152	35.8436	-51.9344	25.8021	28.5099	-79.8273	15.7732	23.7746	-105.13	69.601	36.9576	-67.3856	65.4719	28.6732	-97.7462	66.1303	20.3826	-130.829	99.4606	28.1866	-66.6425	102.31	21.8315	-90.6934	97.8178	18.1297	-115.716	122.283	17.6114	-47.763	130.082	6.77046	-69.3937	143.402	2.54156	-92.7152	100.814	46.1687	-10.3324	108.675	50.6193	26.2171	69.2213	50.9831	14.0846	
8	0.0666667	45.2061	24.9028	28.3919	18.597	14.5457	19.8201	-4.73744	4.08033	-0.291272	-23.7583	-7.03698	-15.2712	37.5547	35.303	-53.4236	25.3622	29.9909	-77.61	19.1305	24.4062	-101.118	70.6837	37.9107	-65.9171	66.3872	28.3814	-99.5816	64.5066	21.8741	-124.16	96.5045	30.6893	-62.5269	99.0829	22.8171	-87.439	99.8835	18.7619	-118.309	124.047	17.7903	-49.0222	129.85	6.88259	-72.1109	143.22	1.48901	-89.8118	105.499	46.189	-9.07708	111.463	49.9768	22.9685	73.0902	49.9809	14.5818	
9	0.075	44.0863	25.806	34.068	18.2091	13.9944	19.4956	-6.15448	4.6377	0.341357	-24.7911	-5.52695	-16.8252	39.2423	36.6771	-53.556	24.8912	30.2317	-73.3124	16.9181	23.6464	-102.944	66.7204	38.8336	-67.618	65.4655	29.4101	-98.7855	62.8511	23.6005	-124.493	97.1891	31.1717	-62.4201	97.6064	23.7902	-87.228	97.6856	19.5741	-116.309	125.733	17.9533	-48.634	130.6	8.3987	-71.3976	138.788	5.49205	-93.1645	100.804	44.0319	-5.29988	111.003	49.079	22.3005	74.9674	51.7952	15.3114	
10	0.0833333	45.8008	25.8706	30.0731	15.9116	15.234	17.9419	-9.22754	3.8701	-0.786362	-24.2509	-6.36039	-18.8609	37.9575	38.0451	-49.1479	22.8461	31.0328	-77.09	19.6898	26.1837	-101.696	68.9744	38.8005	-67.0443	68.0716	31.8119	-95.673	64.5967	23.9663	-125.306	98.204	31.3694	-66.2672	98.7943	25.4346	-88.4476	97.9856	21.0155	-116.492	125.559	18.2898	-49.1477	129.613	9.98045	-72.2526	139.643	6.92699	-97.1463	101.242	45.0174	-3.96009	110.373	51.1126	26.2194	73.8227	49.5608	15.8265	
11	0.0916667	45.3819	24.1551	34.3012	21.537	14.1978	17.5995	-8.63264	3.9253	-5.07938	-26.5332	-6.2962	-20.2346	35.3573	37.0713	-51.0264	25.0019	31.9022	-77.623	16.2798	25.3579	-103.814	66.6946	39.3798	-63.7472	66.0217	31.789	-97.3573	61.2339	24.8816	-125.912	97.2574	32.1803	-65.7782	99.6199	25.2081	-88.6044	96.7326	20.6437	-119.046	121.179	19.6902	-53.8743	131.182	10.3777	-75.3058	140.458	6.45432	-95.7041	102.213	45.0585	-9.69932	109.205	49.7568	24.4757	68.7896	49.2814	12.4166	
12	0.1	43.0256	25.5339	33.9884	20.6166	15.0745	17.5202	-5.32646	4.77619	-0.818626	-23.5729	-4.24933	-16.8126	34.2533	39.0925	-52.6654	25.97	33.1126	-77.1782	15.4176	27.5719	-98.4583	66.0826	40.7424	-68.2441	67.8717	31.5811	-99.4759	64.7122	24.7433	-126.298	96.3534	32.8944	-66.5205	101.372	25.8305	-91.5979	95.9089	22.6384	-118.382	124.296	20.6105	-52.3994	129.463	11.5675	-73.7155	138.18	7.92096	-95.8716	101.046	48.1297	-7.58634	109.037	49.7789	24.2424	70.2794	52.4463	16.2808	
13	0.108333	47.0003	26.5161	30.5685	20.1547	15.8307	17.7129	-3.87583	7.31076	-2.70069	-22.2767	-3.06597	-15.3829	40.104	40.0985	-50.6418	28.2206	35.2857	-76.7086	15.9356	29.5535	-103.665	72.9047	42.2406	-63.8985	69.1812	34.3021	-94.8258	66.2819	26.1311	-128.137	100.298	32.9458	-66.5959	96.7945	27.0935	-88.3142	99.4075	22.9532	-113.913	126.107	21.0835	-47.6916	132.754	10.7385	-73.3142	137.562	8.79606	-92.3088	102.434	47.8245	-3.67088	110.072	51.1537	23.9986	70.7217	53.5509	17.2082	
14	0.116667	45.8389	28.1661	31.3086	18.4345	17.8568	21.1054	-4.34044	9.06256	-1.8829	-24.0745	-0.166549	-20.7124	37.2172	42.6809	-52.8797	28.331	36.4012	-78.7456	16.8806	31.2927	-100.714	69.1324	43.4688	-64.7247	70.6637	36.2702	-94.0311	66.2094	28.2941	-126.651	101.95	34.8737	-64.6405	101.229	28.9649	-91.5841	99.3567	24.5046	-118.724	125.381	22.4551	-47.936	135.477	13.2029	-68.7046	142.169	9.77554	-94.7999	106.422	48.81	-5.53184	109.522	53.371	26.6191	71.9036	53.1668	13.5033	
15	0.125	44.4246	29.0479	31.1787	20.6314	17.7057	19.0333	-5.0932	8.76311	-0.98614	-20.9312	-0.991092	-18.0948	37.3155	42.4732	-51.9488	25.7456	35.832	-77.8787	15.8788	31.27	-100.916	70.4447	43.0947	-67.2741	66.0003	35.6572	-97.7813	64.6312	29.1454	-125.26	97.3755	35.5042	-65.9835	104.435	29.3717	-87.2919	102.296	24.8362	-117.312	126.472	22.4958	-49.0634	134.641	12.4475	-69.9432	141.664	9.59492	-93.762	108.172	50.0459	-5.08476	113.362	54.0187	23.432	73.4557	53.0305	16.5504	
16	0.133333	47.9278	26.5381	30.975	18.9196	16.5282	18.562	-4.31806	7.58586	-5.29326	-22.4357	-2.68179	-20.3026	36.7079	40.8999	-52.7749	24.3754	34.953	-75.9295	18.0265	29.9006	-104.308	69.3705	43.1715	-64.101	66.0785	34.667	-95.085	68.787	26.7731	-125.006	97.4529	34.4993	-61.7217	100.633	27.0296	-90.6081	99.5195	23.683	-118.683	125.859	21.5518	-47.1041	132.383	10.3207	-73.821	140.487	7.71588	-96.0168	105.747	49.0515	-4.49894	113.419	52.8915	26.6723	74.3531	51.4163	17.048	
17	0.141667	43.7418	26.7799	30.5801	20.0633	15.0706	14.8011	-6.69011	5.68788	-0.936684	-22.7998	-3.43601	-16.3818	37.8914	39.7666	-54.0187	26.3131	34.1851	-77.4089	17.6068	28.2926	-101.595	70.5497	40.1343	-67.5112	66.7727	32.255	-98.5542	62.7751	25.8383	-126.533	95.441	33.0947	-65.3585	101.723	24.98	-92.4827	97.2692	21.767	-116.698	123.269	20.1365	-51.9965	132.058	9.12685	-74.1261	142.967	7.29695	-92.2774	105.812	48.0389	-5.5125	112.339	51.8882	28.1086	70.3122	50.7765	17.1735	
18	0.15	42.3642	26.5385	35.1418	18.3831	15.5774	15.9038	-7.71142	5.15125	-0.0152133	-25.8528	-3.67552	-16.6903	35.2661	39.0345	-50.1353	25.9839	33.987	-74.4304	17.5138	28.8243	-104.296	66.86	40.3918	-68.0464	67.9533	32.2884	-94.32	67.2453	24.7501	-127.642	99.8773	32.6368	-62.1219	99.4738	26.3438	-87.5083	97.6576	21.2752	-117.566	122.686	20.3527	-48.3062	130.82	9.45639	-74.6044	140.384	5.71915	-90.949	100.687	47.5467	-6.57614	108.015	49.3031	26.2664	72.2905	51.5179	15.5769	
19	0.158333	41.7335	26.5477	31.9787	19.9834	15.621	14.6167	-4.46624	5.06559	-1.1081	-24.8136	-4.62995	-17.2918	36.8013	38.0087	-48.463	24.1486	33.1922	-74.7276	13.7545	27.8277	-98.8571	71.6936	39.6012	-68.1942	67.3421	31.5658	-96.9769	64.7996	24.8349	-128.23	98.1652	31.7769	-66.5841	96.7451	26.1201	-90.0512	97.3622	20.6616	-120.031	120.749	19.714	-47.9417	130.557	9.37212	-71.1852	137.935	7.7713	-96.1723	99.8666	47.3554	-8.53514	109.277	50.7706	23.0419	73.1451	51.2096	17.1655	
20	0.166667	44.6113	24.8466	29.307	20.5461	14.5192	18.8128	-9.38934	4.08455	-0.140656	-21.454	-5.27968	-19.5219	39.5942	37.5485	-52.375	23.0091	32.0651	-74.5371	13.8529	26.0593	-99.9952	68.2953	40.0785	-64.0501	67.3722	32.4736	-94.5284	61.4952	24.2939	-128.931	96.6827	31.6529	-66.2365	96.9187	24.9031	-91.7358	100.609	19.739	-116.309	125.702	17.8774	-49.39	132.247	7.75018	-69.4056	141.744	4.79906	-92.9174	106.402	46.4858	-4.98724	112.161	50.7093	25.3655	67.9899	49.6554	12.7492	
21	0.175	43.0909	25.4638	29.2974	20.6859	13.5996	13.7412	-9.17475	4.17019	-2.41186	-22.8808	-6.37248	-16.7328	37.2011	37.2912	-55.0564	24.9069	33.0557	-73.5056	13.9228	26.6736	-104.251	69.8691	39.2227	-67.3872	63.5928	31.1294	-98.2615	63.7812	24.0335	-128.314	99.991	30.9468	-67.632	99.7606	24.3712	-88.297	101.18	20.1618	-116.76	125.797	17.6748	-52.7219	130.492	7.71363	-73.0771	139.485	5.31716	-94.7906	101.658	46.7459	-4.17882	110.897	49.0729	25.3064	73.7069	50.4171	14.8855	
